<svg width="123" height="44" viewBox="0 0 123 44" fill="none" xmlns="http://www.w3.org/2000/svg">
<path fill-rule="evenodd" clip-rule="evenodd" d="M80.6239 42.6975V42.1434C79.947 42.0828 79.27 41.9587 78.7804 41.7104C78.1035 41.4015 77.6139 40.8473 77.3661 39.8601C77.1817 38.9335 77.1213 37.5163 77.1213 35.542V30.1761L79.8261 27.5839C82.1622 28.5711 82.8996 30.4213 83.5765 33.8159C84.4983 39.4301 85.2991 41.5892 86.8344 42.7006H111.19V42.1464C110.513 42.0858 110.02 41.9617 109.53 41.777C108.977 41.5317 108.609 41.0381 108.364 40.2962C107.995 39.2485 107.811 37.7041 107.811 34.7425V29.5613C107.811 27.9564 107.871 25.9215 107.995 24.5649C108.424 20.9856 110.023 17.9029 111.253 17.9029C111.845 17.9029 112.06 18.6296 112.335 19.5654C112.459 19.9923 112.598 20.4617 112.791 20.925C113.468 22.5905 114.635 23.7624 117.155 23.7624C119.676 23.7624 121.522 21.8486 121.522 19.0112C121.522 17.4699 121.03 16.298 120.292 15.4955C119.307 14.4477 117.832 13.8906 116.049 13.8906C113.773 13.8906 112.175 14.693 111.132 15.6166C109.902 16.6644 108.672 18.2693 107.935 21.1703H107.75C107.75 20.3436 107.79 18.7871 107.823 17.4123C107.85 16.3252 107.874 15.3501 107.874 14.9413C107.874 14.5719 107.75 14.5083 107.445 14.5083H95.4474H83.4587V15.0625C84.1961 15.123 84.9335 15.2472 85.55 15.5561C86.4717 15.9891 86.6561 16.6674 86.6561 17.2821C86.6561 18.7023 85.6709 19.9348 84.0117 21.6003L77.1273 28.5711V6.11423C77.1273 3.91577 77.1787 2.69542 77.2331 1.36908C77.2392 1.24493 77.2422 1.12077 77.2482 0.993592C77.2482 0.560563 77.1243 0.5 76.8191 0.5H63.9691V1.05415C64.8304 1.11472 65.323 1.17831 65.876 1.54775C66.4291 1.85662 66.7978 2.47437 66.9821 3.46155C67.106 4.26401 67.106 5.99007 67.106 6.97725V21.1491C65.5315 17.1882 61.5846 13.8875 54.9269 13.8875C49.5113 13.8875 44.6185 16.413 41.959 20.8251C41.5329 13.2546 37.9154 7.58894 32.7778 4.69401C29.8252 3.02852 26.0144 2.16549 21.3422 2.16549H0V2.78324C0.797838 2.8438 1.47479 2.96796 2.0913 3.27683C2.88914 3.64627 3.50565 4.26401 3.87435 5.06648C4.36695 6.29894 4.48784 8.15218 4.48784 10.496V34.3701C4.48784 36.7139 4.36393 38.5641 3.87435 39.7996C3.50565 40.602 2.9526 41.1562 2.0913 41.5892C1.53826 41.8981 0.80086 42.0223 0 42.0828V42.7006H23.364C27.2383 42.7006 30.4357 41.5287 32.8927 40.1085C36.0447 38.2673 38.5319 35.3694 40.1034 31.778C40.6232 34.8304 41.9862 37.6223 44.4039 39.6754C46.9848 41.8951 50.6143 43.2547 55.347 43.2547C61.8173 43.2547 65.2837 40.0176 67.097 36.0113C67.097 37.7646 67.0788 38.8487 66.8522 39.9843C66.6678 40.8473 66.1148 41.3409 65.4378 41.7134C65.0087 41.9617 64.4526 42.0828 63.7787 42.1464V42.7006H80.6239V42.6975ZM50.3061 27.3356H67.097V32.8166L66.967 33.3829C65.8609 37.268 62.9718 41.4045 57.3144 41.4045C55.1022 41.4045 53.5035 40.6656 52.3944 39.3696C51.0405 37.8888 50.3031 34.4942 50.3031 28.017V27.3387L50.3061 27.3356ZM95.1935 15.1049C94.1509 15.3108 92.9904 15.7408 91.567 16.5402C90.4609 17.2185 88.9227 18.3904 86.7105 20.5495L83.7579 23.5716C88.9227 24.5588 91.5035 26.5937 92.6731 30.5425C92.9783 31.5569 93.2443 32.4775 93.4891 33.3193C94.3685 36.3596 94.9488 38.3673 96.0548 40.1054C96.3178 40.49 96.5988 40.8352 96.9222 41.135C97.1791 40.8292 97.3695 40.4385 97.5387 39.8601C97.6626 38.8124 97.7835 37.0833 97.7835 34.9242V21.0431C97.7835 20.0559 97.7835 18.2663 97.5991 17.4638C97.4752 16.4766 97.1065 15.9225 96.5535 15.55C96.1425 15.3017 95.6771 15.1654 95.1905 15.1018L95.1935 15.1049ZM117.527 43.5C114.206 43.5 112.117 41.1562 112.117 38.1946C112.117 35.2331 114.209 32.9499 117.527 32.9499C120.845 32.9499 123 35.2937 123 38.1946C123 41.0956 120.909 43.5 117.527 43.5ZM52.2131 16.3555C51.1674 17.6515 50.4904 21.2914 50.3061 26.2273H57.2539C58.5444 26.2273 58.9131 25.7943 58.9131 24.0077C58.9131 20.1831 58.6048 17.6546 57.7435 16.1738C57.127 15.3713 56.3896 14.9413 54.9783 14.9413C53.8722 14.9413 52.887 15.4349 52.2131 16.3615V16.3555ZM26.377 6.60782C28.5287 9.62993 29.8827 15.4289 29.8827 22.3392C29.8827 30.4213 28.4683 35.4178 26.6248 38.3794C25.15 40.602 23.0587 41.4015 20.4144 41.4015H19C17.5252 41.4015 16.6035 41.1532 16.2348 40.3537C15.6122 39.6149 15.6153 38.4581 15.6183 36.4535C15.6183 36.2808 15.6183 36.0992 15.6183 35.9144V7.28613C15.6183 7.08324 15.6183 6.88338 15.6122 6.69261C15.5971 5.47831 15.5881 4.4881 16.1713 3.95514C16.6005 3.52211 17.1565 3.40099 18.6313 3.40099H19.9218C22.7505 3.40099 24.7783 4.0793 26.377 6.60782Z" fill="#536B31"/>
</svg>
