<svg width="24" height="24" viewBox="0 0 24 24" fill="none" xmlns="http://www.w3.org/2000/svg">
<path d="M8.625 14.25C9.24632 14.25 9.75 13.7463 9.75 13.125C9.75 12.5037 9.24632 12 8.625 12C8.00368 12 7.5 12.5037 7.5 13.125C7.5 13.7463 8.00368 14.25 8.625 14.25Z" fill="#615661"/>
<path d="M15.375 14.25C15.9963 14.25 16.5 13.7463 16.5 13.125C16.5 12.5037 15.9963 12 15.375 12C14.7537 12 14.25 12.5037 14.25 13.125C14.25 13.7463 14.7537 14.25 15.375 14.25Z" fill="#615661"/>
<path d="M14.385 6.90844L14.8538 5.06812C14.9006 4.88297 15.0154 4.72225 15.1755 4.618C15.3355 4.51375 15.5289 4.47363 15.7172 4.50562L19.0959 5.0625C19.2419 5.08619 19.3777 5.15208 19.4866 5.25203C19.5956 5.35198 19.6729 5.48163 19.7091 5.625L22.4775 16.5347C22.5198 16.7062 22.5002 16.8871 22.4222 17.0456C22.3441 17.2041 22.2127 17.3299 22.0509 17.4009L15.7697 20.1853C15.6744 20.2286 15.5712 20.2518 15.4665 20.2535C15.3619 20.2553 15.258 20.2355 15.1613 20.1954C15.0646 20.1553 14.9772 20.0958 14.9044 20.0205C14.8317 19.9452 14.7752 19.8558 14.7384 19.7578L13.7812 17.1619" stroke="#615661" stroke-width="2" stroke-linecap="round" stroke-linejoin="round"/>
<path d="M9.61499 6.90844L9.14624 5.06812C9.09942 4.88297 8.98456 4.72225 8.82454 4.618C8.66451 4.51375 8.47108 4.47363 8.2828 4.50562L4.90405 5.0625C4.75811 5.08619 4.62229 5.15208 4.51334 5.25203C4.40439 5.35198 4.32708 5.48163 4.29092 5.625L1.52249 16.5328C1.48019 16.7043 1.49979 16.8852 1.57783 17.0437C1.65586 17.2022 1.78732 17.328 1.94905 17.3991L8.2303 20.1834C8.32561 20.2267 8.4288 20.2499 8.53346 20.2517C8.63812 20.2534 8.74202 20.2336 8.83871 20.1935C8.93541 20.1534 9.02284 20.0939 9.09557 20.0186C9.16831 19.9434 9.2248 19.8539 9.26155 19.7559L10.2187 17.1619" stroke="#615661" stroke-width="2" stroke-linecap="round" stroke-linejoin="round"/>
<path d="M7.5 7.34156C8.96628 6.94143 10.4801 6.74242 12 6.75C13.5199 6.74242 15.0337 6.94143 16.5 7.34156" stroke="#615661" stroke-width="2" stroke-linecap="round" stroke-linejoin="round"/>
<path d="M16.5 16.6584C15.0337 17.0586 13.5199 17.2576 12 17.25C10.4801 17.2576 8.96628 17.0586 7.5 16.6584" stroke="#615661" stroke-width="2" stroke-linecap="round" stroke-linejoin="round"/>
</svg>
