<svg width="65" height="65" viewBox="0 0 65 65" fill="none" xmlns="http://www.w3.org/2000/svg">
<path d="M32.5 56.875C45.9619 56.875 56.875 45.9619 56.875 32.5C56.875 19.0381 45.9619 8.125 32.5 8.125C19.0381 8.125 8.125 19.0381 8.125 32.5C8.125 45.9619 19.0381 56.875 32.5 56.875Z" stroke="#F9E1D2" stroke-width="1.5" stroke-linecap="round" stroke-linejoin="round"/>
<path d="M38.5938 44.6875H26.4062L37.3674 30.0727C37.8957 29.3708 38.2661 28.5629 38.453 27.7045C38.6399 26.8461 38.639 25.9574 38.4503 25.0993C38.2617 24.2413 37.8897 23.4342 37.3599 22.7333C36.8301 22.0325 36.1551 21.4545 35.3811 21.039C34.607 20.6234 33.7522 20.3802 32.8754 20.3259C31.9985 20.2716 31.1203 20.4075 30.3009 20.7244C29.4815 21.0412 28.7403 21.5315 28.1281 22.1617C27.5159 22.7918 27.0472 23.5468 26.7541 24.375" stroke="#F9E1D2" stroke-width="1.5" stroke-linecap="round" stroke-linejoin="round"/>
</svg>
