<svg width="65" height="65" viewBox="0 0 65 65" fill="none" xmlns="http://www.w3.org/2000/svg">
<path d="M32.5 56.875C45.9619 56.875 56.875 45.9619 56.875 32.5C56.875 19.0381 45.9619 8.125 32.5 8.125C19.0381 8.125 8.125 19.0381 8.125 32.5C8.125 45.9619 19.0381 56.875 32.5 56.875Z" stroke="#F9E1D2" stroke-width="1.5" stroke-linecap="round" stroke-linejoin="round"/>
<path d="M26.4062 21.3281H38.5938L31.4844 31.4844C32.6565 31.4845 33.8104 31.7745 34.8433 32.3285C35.8763 32.8824 36.7562 33.6832 37.4049 34.6594C38.0535 35.6357 38.4507 36.7572 38.5611 37.9241C38.6715 39.091 38.4917 40.2671 38.0377 41.3477C37.5837 42.4283 36.8695 43.3798 35.9588 44.1177C35.048 44.8555 33.969 45.3568 32.8177 45.5768C31.6665 45.7968 30.4787 45.7287 29.36 45.3786C28.2414 45.0286 27.2267 44.4074 26.4062 43.5703" stroke="#F9E1D2" stroke-width="1.5" stroke-linecap="round" stroke-linejoin="round"/>
</svg>
